<?xml version="1.0" standalone="no"?>
<!DOCTYPE svg PUBLIC "-//W3C//DTD SVG 20010904//EN"
 "http://www.w3.org/TR/2001/REC-SVG-20010904/DTD/svg10.dtd">
<svg version="1.0" xmlns="http://www.w3.org/2000/svg"
 width="260.000000pt" height="260.000000pt" viewBox="0 0 260.000000 260.000000"
 preserveAspectRatio="xMidYMid meet">
<metadata>
Created by potrace 1.14, written by Peter Selinger 2001-2017
</metadata>
<g transform="translate(0.000000,260.000000) scale(0.100000,-0.100000)"
fill="#000000" stroke="none">
<path d="M1713 2502 c-28 -4 -63 -47 -63 -78 0 -12 10 -34 23 -48 22 -25 33
-29 132 -40 57 -7 175 -62 221 -103 85 -77 141 -187 149 -294 7 -89 29 -120
86 -121 46 -2 79 39 79 95 0 70 -27 174 -66 254 -97 203 -365 363 -561 335z"/>
<path d="M1693 2289 c-47 -24 -53 -106 -9 -134 11 -7 43 -16 70 -20 119 -15
206 -102 219 -221 7 -56 21 -80 55 -92 36 -12 87 7 97 37 10 34 3 122 -15 171
-38 104 -112 184 -215 231 -69 31 -168 45 -202 28z"/>
<path d="M1130 2207 c-91 -26 -172 -97 -214 -186 -20 -44 -21 -64 -26 -473
l-5 -427 -62 -63 c-192 -196 -223 -478 -77 -706 222 -346 739 -340 953 12 54
90 78 174 80 280 3 166 -44 285 -159 409 l-70 75 0 395 c0 358 -2 401 -19 455
-30 99 -84 163 -174 209 -59 30 -161 39 -227 20z m145 -392 l25 -24 0 -411 c0
-266 4 -418 10 -431 6 -11 30 -31 53 -46 161 -100 189 -301 63 -441 -54 -60
-115 -85 -206 -86 -86 -1 -138 20 -203 82 -90 87 -108 235 -44 345 28 48 55
74 110 106 20 13 42 31 47 41 6 11 10 165 10 382 -1 199 0 385 0 411 0 59 32
97 80 97 19 0 40 -9 55 -25z"/>
<path d="M1186 779 c-80 -23 -114 -108 -73 -182 22 -39 68 -67 109 -67 35 0
96 41 109 73 43 102 -43 206 -145 176z"/>
<path d="M1681 2073 c-11 -10 -24 -32 -27 -50 -5 -27 -1 -37 24 -63 17 -16 39
-30 49 -30 25 0 43 -19 43 -45 0 -12 9 -31 20 -43 49 -52 140 -13 140 59 0 67
-55 148 -119 175 -46 19 -104 18 -130 -3z"/>
<path d="M520 1967 c-51 -26 -52 -104 -1 -135 22 -13 49 -17 131 -15 115 1
144 11 159 56 13 37 -3 76 -39 94 -33 17 -217 17 -250 0z"/>
<path d="M379 1693 c-22 -6 -47 -54 -43 -83 2 -14 16 -35 30 -47 24 -22 33
-23 209 -23 178 0 185 1 211 23 34 30 35 79 3 113 -22 24 -25 24 -208 23 -102
-1 -193 -3 -202 -6z"/>
<path d="M507 1400 c-27 -24 -29 -30 -22 -69 6 -36 12 -45 39 -56 34 -14 231
-15 254 -2 22 14 40 62 35 90 -9 48 -41 60 -166 62 -106 1 -112 0 -140 -25z"/>
</g>
</svg>
