<?xml version="1.0" standalone="no"?>
<!DOCTYPE svg PUBLIC "-//W3C//DTD SVG 20010904//EN"
 "http://www.w3.org/TR/2001/REC-SVG-20010904/DTD/svg10.dtd">
<svg version="1.0" xmlns="http://www.w3.org/2000/svg"
 width="423.000000pt" height="423.000000pt" viewBox="0 0 423.000000 423.000000"
 preserveAspectRatio="xMidYMid meet">
<metadata>
Created by potrace 1.14, written by Peter Selinger 2001-2017
</metadata>
<g transform="translate(0.000000,423.000000) scale(0.100000,-0.100000)"
fill="#000000" stroke="none">
<path d="M2865 3090 c-27 -4 -70 -10 -95 -14 -25 -4 -56 -9 -70 -11 -14 -2
-45 -8 -70 -14 -25 -5 -59 -12 -77 -15 -17 -4 -78 -22 -135 -41 -57 -20 -107
-37 -113 -39 -109 -35 -390 -179 -539 -278 -49 -32 -91 -58 -93 -58 -2 0 -9
-5 -16 -10 -7 -6 -35 -27 -64 -48 -146 -105 -173 -124 -184 -138 -6 -8 -7 -14
-1 -14 5 0 15 7 22 15 7 8 16 15 21 15 8 0 130 70 139 80 8 8 41 28 80 47 19
9 40 24 47 33 7 8 13 11 13 5 0 -7 3 -7 8 0 4 6 17 16 30 23 18 10 22 10 23 0
0 -7 4 -4 9 7 5 13 53 43 126 80 66 32 121 62 122 67 7 15 18 8 18 -12 0 -15
-5 -19 -21 -14 -16 4 -17 3 -5 -5 8 -6 11 -11 5 -11 -5 0 -4 -5 3 -12 8 -8 15
-8 27 2 14 11 19 7 16 -13 -1 -5 3 -5 9 -2 8 5 6 13 -6 26 -24 26 -6 24 25 -3
l26 -23 -20 24 c-18 22 -18 24 -2 18 10 -4 16 -3 12 2 -3 5 -1 12 5 16 9 6 14
-8 11 -28 -1 -5 3 -6 8 -2 6 3 8 11 5 19 -3 7 2 13 11 14 8 1 23 3 33 4 9 0
23 9 29 19 10 13 24 16 52 14 42 -3 61 14 37 35 -10 8 -15 7 -19 -4 -4 -11 -1
-13 11 -10 14 5 15 4 2 -5 -22 -16 -33 -13 -26 7 5 14 4 14 -9 -2 -8 -11 -15
-15 -15 -9 0 6 -10 10 -22 9 -17 -1 -22 -7 -20 -21 3 -16 2 -17 -12 -6 -12 10
-19 11 -29 2 -8 -6 -16 -8 -20 -5 -10 10 -48 -16 -41 -28 5 -8 1 -9 -11 -5 -9
4 -24 2 -31 -4 -8 -6 -14 -8 -14 -3 0 13 13 29 25 31 6 1 42 14 80 29 39 14
80 27 93 27 12 1 22 4 22 8 0 4 8 6 18 5 9 -2 26 2 37 9 23 13 45 14 44 1 0
-5 5 -13 13 -17 8 -5 9 -9 2 -9 -6 0 -17 7 -24 15 -9 11 -17 12 -32 4 -17 -9
-18 -13 -7 -20 8 -5 22 -6 33 -3 13 4 16 2 11 -6 -6 -9 -3 -9 14 0 12 6 19 15
16 20 -3 6 -1 18 4 27 11 19 13 14 14 -34 0 -12 4 -20 9 -17 4 3 6 10 3 15 -9
13 28 56 43 51 6 -2 12 -8 12 -13 0 -4 -6 -6 -13 -3 -8 3 -19 -2 -26 -9 -9
-12 -8 -16 3 -20 10 -4 13 -1 9 9 -3 7 0 14 6 14 6 0 11 -4 11 -9 0 -5 7 -11
15 -15 8 -3 14 0 12 7 -1 7 4 11 11 9 8 -1 11 2 8 7 -3 5 4 9 17 9 12 1 37 4
55 8 19 4 38 2 46 -5 9 -8 16 -8 20 -2 4 5 15 8 26 6 10 -2 24 3 31 11 9 11 8
14 -5 14 -10 0 -15 -4 -12 -8 3 -5 -1 -9 -8 -9 -11 0 -12 4 -3 18 7 12 16 15
26 10 9 -5 26 -7 39 -5 12 2 22 -1 22 -7 0 -5 5 -7 11 -3 8 4 9 -1 4 -17 -5
-19 -4 -21 4 -9 10 13 11 13 11 0 0 -9 3 -11 8 -5 4 6 16 12 26 13 18 3 18 2
6 -15 -14 -17 -14 -17 6 -1 16 14 23 15 32 6 8 -8 15 -9 22 -2 7 7 6 11 -5 12
-8 1 -22 3 -30 4 -8 1 -15 5 -15 10 0 12 24 10 38 -4 9 -9 12 -9 12 3 0 12 2
12 10 -1 5 -8 7 -24 4 -34 -5 -16 -4 -17 9 -5 8 8 13 17 10 22 -2 4 1 7 6 7 6
0 11 -5 11 -11 0 -6 6 -9 14 -6 8 3 22 -1 33 -9 10 -9 12 -12 4 -8 -9 4 -12 3
-7 -4 4 -6 14 -8 23 -5 12 5 15 2 10 -10 -3 -9 -1 -19 5 -23 7 -4 8 -3 4 4 -4
7 -2 12 3 12 10 0 15 -14 12 -32 0 -5 5 -7 12 -5 6 1 12 -5 12 -13 0 -8 4 -20
8 -27 11 -17 -2 -81 -25 -122 -24 -41 -100 -121 -117 -121 -6 0 -11 -4 -11 -8
0 -8 -175 -105 -182 -102 -2 1 -23 -8 -48 -19 -24 -11 -48 -17 -52 -15 -4 3
-8 0 -8 -6 0 -6 -4 -9 -8 -6 -5 3 -20 -1 -34 -8 -20 -11 -29 -11 -38 -2 -6 6
-10 7 -8 1 2 -5 0 -11 -5 -12 -4 -2 -21 -10 -37 -18 -17 -9 -30 -13 -30 -11 0
3 -18 -1 -41 -9 -23 -8 -45 -12 -50 -9 -5 3 -9 1 -9 -4 0 -5 -6 -9 -12 -10 -7
0 -31 -5 -52 -11 -22 -5 -44 -7 -49 -4 -6 3 -7 1 -3 -5 4 -7 1 -12 -8 -12 -24
0 -70 -45 -98 -97 -39 -71 -82 -203 -92 -280 -3 -18 -7 -37 -11 -43 -3 -5 -2
-10 3 -10 5 0 9 -7 9 -15 0 -8 -4 -12 -9 -9 -4 3 -8 0 -8 -5 0 -6 7 -11 15
-11 8 0 19 -8 24 -19 9 -16 21 -22 74 -36 4 -2 10 -4 15 -5 4 -1 11 -2 16 -1
5 1 13 -4 17 -11 5 -7 14 -13 21 -13 7 0 13 -5 13 -12 0 -6 4 -15 8 -20 5 -4
7 -1 5 7 -2 8 2 14 7 15 6 0 16 4 23 8 8 6 16 0 22 -15 8 -20 9 -20 8 -3 -2
11 8 31 21 44 15 15 22 18 18 9 -3 -10 0 -19 8 -22 8 -3 12 -12 9 -20 -3 -8
-2 -16 3 -19 4 -3 8 8 8 23 1 16 -2 27 -6 24 -10 -6 -5 24 6 33 4 4 5 3 1 -4
-9 -16 13 -28 27 -14 19 19 28 12 22 -16 -5 -27 -5 -27 6 -5 7 12 16 22 21 22
5 0 7 -4 3 -9 -3 -5 -1 -12 4 -15 5 -4 8 1 7 10 -1 8 -9 20 -17 25 -19 12 -2
11 21 -1 12 -7 17 -17 14 -28 -5 -13 -4 -14 4 -3 5 7 12 9 14 5 3 -5 3 -3 1 4
-1 6 -5 18 -6 25 -2 6 -2 8 1 4 2 -4 10 0 18 10 11 14 13 15 8 2 -3 -10 1 -19
10 -22 11 -5 15 0 13 15 -1 17 4 22 24 23 14 1 31 5 37 9 7 4 12 2 12 -3 0 -6
-7 -11 -16 -11 -8 0 -13 -4 -10 -9 7 -11 -13 -9 -31 2 -8 5 -13 4 -13 -2 0 -6
4 -11 10 -11 5 0 8 -6 6 -12 -1 -7 -1 -10 1 -5 3 4 8 5 13 2 4 -3 13 2 20 10
7 8 20 15 29 15 23 0 40 19 34 39 -4 13 -2 13 7 -1 6 -10 16 -18 22 -18 6 0 5
7 -3 17 -10 11 -10 14 -1 9 7 -4 12 -2 12 6 0 7 13 0 27 -17 15 -16 24 -22 20
-12 -8 22 2 22 33 0 21 -15 23 -15 12 -1 -10 13 -10 17 0 20 7 3 18 -2 24 -10
9 -12 13 -12 19 -2 6 9 4 11 -5 5 -8 -5 -11 -3 -8 6 3 8 10 15 16 15 7 1 17 2
22 3 6 0 10 6 10 12 0 8 -5 8 -15 -1 -12 -10 -15 -10 -15 1 0 8 -6 5 -15 -7
-14 -17 -14 -17 -3 10 7 15 14 23 16 17 2 -6 8 -11 13 -11 6 0 8 3 6 8 -3 4 2
13 10 21 13 12 14 11 8 -9 -5 -15 -3 -20 3 -16 6 3 14 1 18 -5 4 -8 3 -9 -4
-5 -7 4 -12 2 -12 -3 0 -6 4 -11 8 -11 17 0 21 13 11 31 -7 15 -6 17 6 13 14
-6 19 -18 16 -37 -1 -5 3 -6 8 -2 6 3 8 11 5 18 -2 7 4 13 16 14 13 1 18 -2
13 -10 -3 -7 3 -4 14 6 11 9 23 14 28 10 4 -5 5 -2 1 5 -4 6 -2 13 3 13 26 3
30 4 37 12 12 11 26 8 18 -5 -4 -7 -3 -8 5 -4 6 4 9 11 6 16 -3 5 -1 11 5 15
5 3 10 0 10 -7 0 -9 3 -9 10 2 13 19 13 53 0 45 -5 -3 -7 -13 -4 -23 5 -14 4
-15 -5 -2 -8 11 -11 12 -11 2 0 -7 -5 -10 -10 -7 -6 3 -13 -1 -16 -10 -6 -13
-8 -14 -15 -3 -6 9 -9 9 -9 1 0 -7 -10 -17 -21 -24 -13 -7 -19 -7 -15 -1 3 6
2 13 -4 17 -5 3 -10 1 -10 -4 0 -6 -5 -11 -10 -11 -6 0 -5 8 2 20 11 16 14 17
21 5 4 -8 13 -15 19 -15 7 0 6 6 -2 15 -11 13 -10 14 5 9 14 -6 16 -4 10 7 -7
12 -6 12 7 1 14 -11 18 -10 27 5 6 10 11 14 11 9 0 -5 7 -3 15 4 8 7 12 17 8
24 -3 6 -3 8 1 4 4 -3 20 -2 36 2 22 6 28 5 24 -5 -3 -7 -14 -11 -26 -7 -15 3
-19 1 -14 -7 4 -6 12 -9 17 -6 5 4 9 1 9 -4 0 -6 -4 -11 -10 -11 -5 0 -10 -4
-10 -10 0 -19 17 -10 28 15 10 22 17 25 44 20 23 -4 29 -2 18 4 -8 5 -17 8
-21 5 -4 -2 -11 1 -15 7 -5 8 -3 9 6 4 8 -5 11 -3 8 6 -3 8 -14 13 -24 11 -15
-2 -16 -1 -4 7 10 7 19 6 29 -2 12 -10 14 -9 8 5 -3 10 -1 20 5 24 6 4 8 3 4
-4 -3 -6 -2 -13 4 -17 5 -3 10 -2 10 4 0 13 33 7 38 -7 2 -7 8 -12 13 -12 5 0
2 11 -7 25 -15 23 -15 25 0 31 9 3 13 11 9 18 -4 6 1 5 10 -3 17 -14 24 -26 9
-17 -4 2 -14 1 -21 -3 -9 -6 -5 -10 13 -13 16 -3 31 1 38 10 7 9 9 13 3 10 -5
-3 -18 5 -28 18 -10 13 -14 24 -9 24 6 0 12 -7 16 -15 3 -8 12 -15 20 -15 8 0
16 -3 19 -7 2 -5 2 -2 1 5 -2 6 1 12 6 12 6 0 10 -5 10 -12 0 -6 6 -3 14 7 10
13 11 25 5 37 -6 11 -5 19 3 24 6 4 8 3 5 -3 -4 -6 4 -13 18 -15 13 -3 22 -1
19 3 -3 5 0 9 5 9 6 0 11 7 11 16 0 8 4 13 9 10 4 -3 19 3 31 14 12 11 27 17
31 14 5 -3 9 0 9 6 0 15 -32 8 -47 -10 -6 -8 -16 -15 -22 -15 -5 0 -17 -9 -25
-20 -13 -17 -17 -18 -25 -6 -15 23 -2 43 23 35 19 -6 20 -5 6 12 -11 15 -11
16 0 7 17 -15 40 -17 40 -3 0 6 -7 10 -15 10 -8 0 -15 4 -15 10 0 5 6 9 13 7
6 -1 11 4 9 11 -1 8 2 11 7 7 6 -3 7 -13 4 -23 -6 -15 -5 -15 10 -3 13 11 15
17 6 28 -10 11 -8 12 7 6 17 -6 18 -5 4 13 -14 19 -14 19 8 0 12 -11 22 -24
22 -30 0 -6 -4 -5 -9 2 -7 11 -9 11 -14 -1 -4 -10 0 -14 10 -13 9 2 19 11 23
20 3 10 10 18 15 19 6 1 9 6 7 11 -2 5 4 6 13 2 9 -3 13 -2 10 3 -3 5 -1 12 5
16 5 3 10 0 10 -7 0 -10 2 -10 9 1 5 7 15 10 22 7 8 -4 6 -1 -3 7 -10 8 -15
17 -11 20 3 4 1 7 -5 7 -7 0 -12 -5 -12 -11 0 -5 -5 -7 -12 -3 -7 5 -8 3 -3
-6 5 -9 4 -11 -4 -6 -6 4 -9 12 -6 17 4 5 1 9 -4 9 -6 0 -11 -4 -11 -10 0 -5
-5 -10 -11 -10 -8 0 -7 5 1 15 8 10 21 13 34 9 17 -5 19 -4 9 7 -7 7 -13 18
-13 24 0 5 5 2 11 -8 7 -12 17 -16 31 -11 16 5 19 3 12 -7 -6 -11 -5 -11 9 0
10 8 15 16 13 19 -3 2 -1 13 5 23 7 15 6 17 -5 13 -8 -3 -13 -14 -11 -25 2
-11 0 -17 -6 -13 -6 3 -8 8 -5 11 3 3 -1 12 -9 20 -8 8 -15 20 -15 26 0 7 5 4
11 -5 5 -9 16 -15 24 -12 8 4 12 11 9 16 -4 6 2 5 14 -1 15 -8 23 -8 28 1 4 6
3 8 -3 5 -6 -4 -16 -1 -22 7 -9 11 -6 12 15 8 20 -3 25 -1 22 9 -2 7 4 22 14
33 20 22 23 36 7 36 -5 0 -7 -5 -3 -12 5 -7 3 -8 -6 -3 -8 5 -11 4 -7 -2 8
-12 -20 -39 -30 -29 -4 3 4 18 18 32 l24 26 -25 -6 c-14 -3 -19 -3 -12 0 6 3
9 11 6 16 -4 7 -2 8 4 4 6 -4 22 -2 34 4 23 11 23 11 3 -6 -16 -13 -17 -15 -3
-11 10 3 20 2 23 -3 4 -6 12 -10 18 -10 7 0 3 6 -8 12 -19 11 -19 11 0 19 17
7 18 8 3 8 -10 1 -18 6 -18 11 0 6 8 10 18 10 14 0 15 2 2 10 -18 12 -30 13
-29 3 3 -19 -2 -30 -14 -30 -7 0 -13 8 -13 18 0 10 4 16 7 13 4 -2 11 1 15 7
3 6 0 15 -7 20 -10 6 -8 8 8 6 12 0 19 -5 16 -11 -3 -5 -1 -6 5 -2 5 3 12 0
15 -6 3 -7 4 -3 4 9 -1 12 -5 19 -9 17 -4 -3 -8 -1 -8 5 0 6 -8 8 -17 4 -15
-5 -15 -3 2 11 18 16 19 17 1 12 -18 -6 -18 -5 -2 18 20 31 21 42 2 27 -12
-10 -13 -8 -9 8 3 12 1 21 -5 21 -6 0 -9 8 -7 18 1 9 -3 23 -9 31 -9 11 -6 13
14 7 17 -5 21 -4 11 2 -8 6 -10 15 -5 23 6 11 5 12 -7 2 -12 -9 -18 -6 -33 20
-17 31 -17 31 1 17 10 -8 8 -5 -5 8 -13 12 -19 22 -15 22 4 0 0 5 -10 11 -9 6
-14 16 -11 22 4 7 4 9 -1 5 -4 -4 -24 7 -45 25 -34 31 -146 92 -187 102 -10 3
-43 12 -73 20 -30 9 -71 18 -90 20 -19 3 -51 8 -70 11 -54 9 -299 11 -355 4z
m-255 -175 c0 -11 -29 -11 -33 -1 -4 10 1 12 14 9 10 -3 19 -7 19 -8z m69 -7
c-9 -17 -11 -17 -34 -2 -14 9 -25 17 -25 18 0 0 15 1 34 1 30 1 33 -2 25 -17z
m169 6 c-4 -11 -28 -14 -28 -4 0 8 22 20 28 14 2 -1 2 -6 0 -10z m-322 -9 c-1
-8 -8 -20 -14 -25 -8 -7 -9 -7 -3 1 5 6 7 18 4 25 -3 8 -1 14 5 14 6 0 9 -7 8
-15z m39 -14 c-6 -5 -25 10 -25 20 0 5 6 4 14 -3 8 -7 12 -15 11 -17z m-349
-93 c4 -7 3 -8 -4 -4 -7 4 -18 4 -24 -1 -20 -12 -38 -12 -38 -1 0 6 7 8 15 5
8 -4 17 -2 20 3 8 13 22 12 31 -2z m-141 -58 c-3 -5 -12 -10 -18 -10 -7 0 -6
4 3 10 19 12 23 12 15 0z m1575 -390 c0 -5 -2 -10 -4 -10 -3 0 -8 5 -11 10 -3
6 -1 10 4 10 6 0 11 -4 11 -10z m-66 -71 c4 6 13 11 19 11 7 0 4 -5 -6 -11 -9
-6 -15 -14 -12 -19 8 -13 -24 -5 -38 10 -9 10 -9 11 1 6 7 -4 12 -2 12 6 0 10
2 10 9 -1 6 -9 11 -10 15 -2z m-186 -138 c-7 -11 -16 -17 -21 -14 -4 3 0 11
10 19 24 18 25 17 11 -5z m-23 -31 c4 -6 10 -8 15 -5 5 3 11 1 14 -4 4 -5 2
-12 -3 -15 -5 -4 -13 -1 -17 5 -4 8 -9 7 -15 -2 -6 -11 -11 -11 -20 -2 -12 12
-5 33 11 33 5 0 12 -5 15 -10z m-110 -60 c3 -5 1 -10 -4 -10 -6 0 -11 5 -11
10 0 6 2 10 4 10 3 0 8 -4 11 -10z m-311 -164 c-4 -11 3 -13 33 -9 21 3 35 2
30 -3 -10 -11 -67 -12 -73 -2 -3 4 -2 13 1 18 9 15 15 12 9 -4z m-154 -51 c0
-2 -9 -9 -19 -15 -14 -7 -22 -7 -27 2 -4 6 -3 8 2 5 6 -3 16 -2 24 4 17 10 20
11 20 4z m30 -4 c0 -13 -29 -35 -37 -28 -3 4 2 9 11 13 9 3 13 10 10 15 -3 5
0 9 5 9 6 0 11 -4 11 -9z m-155 -40 c3 -5 2 -12 -3 -15 -5 -3 -9 1 -9 9 0 17
3 19 12 6z m-368 -85 c-5 -12 -24 -14 -47 -6 -3 1 -9 2 -15 0 -5 -1 -4 4 3 12
8 8 15 9 20 3 12 -17 32 -16 32 2 0 9 3 14 6 10 4 -3 4 -13 1 -21z m31 10 c-7
-8 -15 -12 -17 -11 -5 6 10 25 20 25 5 0 4 -6 -3 -14z"/>
<path d="M3350 2099 c0 -5 5 -7 10 -4 6 3 10 8 10 11 0 2 -4 4 -10 4 -5 0 -10
-5 -10 -11z"/>
<path d="M2740 2896 c-7 -11 -9 -18 -5 -14 5 4 15 2 24 -5 14 -11 15 -10 1 7
-14 18 -13 18 9 11 17 -5 22 -4 19 6 -7 21 -34 18 -48 -5z"/>
<path d="M2620 2880 c8 -5 20 -10 25 -10 6 0 3 5 -5 10 -8 5 -19 10 -25 10 -5
0 -3 -5 5 -10z"/>
<path d="M2576 2872 c-2 -4 4 -8 14 -8 10 0 16 4 14 8 -3 4 -9 8 -14 8 -5 0
-11 -4 -14 -8z"/>
<path d="M2981 2857 c-13 -21 -12 -21 5 -5 10 10 16 20 13 22 -3 3 -11 -5 -18
-17z"/>
<path d="M2636 2843 c-1 -1 -27 -4 -57 -6 -30 -2 -60 -7 -67 -11 -7 -4 -12 -2
-12 6 0 10 -3 9 -10 -2 -5 -8 -12 -11 -16 -7 -4 4 -13 2 -21 -4 -7 -6 -13 -8
-13 -5 0 4 -8 2 -19 -3 -10 -6 -33 -12 -50 -13 -17 -1 -31 -6 -31 -11 0 -5 -8
-3 -17 4 -11 10 -14 10 -9 2 4 -7 2 -14 -3 -14 -23 -3 -57 -16 -93 -35 -15 -8
-29 -14 -30 -13 -2 1 -22 -8 -44 -19 -23 -12 -44 -18 -48 -15 -3 4 -6 2 -6 -4
0 -10 -36 -26 -52 -24 -5 1 -8 -4 -8 -11 0 -6 -3 -8 -6 -5 -4 4 -21 -3 -38
-16 -16 -12 -37 -22 -44 -23 -8 -2 -22 -10 -31 -18 -14 -13 -20 -13 -31 -3
-12 10 -12 9 -2 -4 6 -9 9 -19 5 -23 -4 -4 0 -4 10 0 9 3 17 10 17 15 0 5 11
9 24 9 14 0 27 4 31 9 3 5 19 12 35 16 17 4 30 10 30 14 0 4 6 8 13 8 6 0 24
4 38 7 18 5 30 2 38 -8 15 -18 31 -21 31 -5 0 5 -4 8 -9 5 -5 -3 -14 1 -20 8
-9 10 -9 16 -1 21 6 4 14 4 17 1 3 -3 11 -2 17 3 11 9 80 33 106 37 8 1 33 7
55 13 62 17 105 22 105 12 0 -6 -11 -8 -25 -5 -14 2 -25 0 -25 -6 0 -6 -6 -8
-12 -4 -9 5 -9 3 1 -9 11 -14 11 -18 -3 -23 -9 -3 -16 -11 -16 -17 0 -5 8 -3
18 5 9 9 24 13 32 11 11 -3 10 0 -3 10 -11 9 -14 18 -8 21 6 4 16 -2 23 -14 7
-11 17 -20 22 -20 4 0 3 7 -4 15 -10 12 -9 16 4 21 9 3 23 3 32 0 13 -5 14 -9
5 -20 -9 -11 -9 -16 0 -22 7 -4 9 -3 5 4 -3 6 -2 13 4 17 6 4 8 11 5 16 -4 5
-1 9 4 9 6 0 11 -6 11 -12 0 -9 3 -9 9 1 7 11 10 10 14 -5 4 -18 5 -18 6 1 1
17 3 18 12 5 9 -13 10 -13 6 0 -2 10 -16 15 -40 15 -19 0 -33 3 -30 8 3 5 -4
6 -16 2 -11 -3 -21 -2 -21 2 0 5 24 9 54 9 31 -1 52 -5 48 -10 -3 -5 2 -7 12
-3 10 4 15 3 11 -3 -3 -6 1 -10 9 -10 10 0 13 -6 9 -17 -5 -16 -4 -15 9 1 10
13 17 15 22 8 4 -7 13 -12 19 -12 13 1 -23 24 -37 25 -5 0 -11 7 -13 15 -3 10
-2 11 4 4 4 -6 16 -10 26 -8 9 1 15 -2 11 -7 -5 -8 9 -13 29 -10 10 1 9 -13
-3 -27 -7 -9 -7 -9 2 -2 15 13 41 13 34 1 -4 -5 -1 -11 5 -13 17 -6 14 -54 -5
-83 -26 -40 -103 -91 -194 -130 -46 -19 -90 -35 -98 -35 -8 0 -14 -5 -14 -12
0 -6 -3 -9 -6 -6 -3 4 -21 0 -40 -8 -19 -8 -34 -11 -34 -8 0 4 -6 1 -13 -5 -8
-6 -17 -8 -20 -4 -4 3 -7 2 -7 -4 0 -17 13 -23 27 -12 7 6 13 9 13 6 0 -3 36
3 80 13 44 10 80 16 80 13 0 -3 6 -1 13 5 7 6 28 12 45 14 18 1 32 5 32 9 0 7
33 18 75 26 10 2 23 9 27 16 4 6 8 8 8 3 0 -6 5 -5 12 2 17 17 25 15 31 -8 4
-16 2 -18 -11 -11 -15 9 -58 -10 -74 -33 -4 -6 -14 -4 -25 5 -16 13 -17 12 -5
-2 7 -9 9 -25 6 -35 -5 -14 -2 -12 13 6 19 22 23 23 39 10 16 -12 17 -12 7 0
-15 16 -17 30 -5 30 5 0 14 -10 20 -22 l11 -23 -2 24 c-1 14 4 26 13 28 12 4
12 3 1 -5 -9 -7 -10 -12 -2 -16 6 -4 11 -2 11 4 0 7 7 9 16 6 9 -4 13 -2 8 5
-4 6 -8 24 -9 39 -2 22 2 27 19 26 11 -1 27 5 34 14 8 9 7 3 -2 -17 -13 -25
-13 -33 -3 -39 6 -4 9 -4 5 1 -4 4 1 19 12 33 11 13 17 28 15 32 -3 5 -1 11 4
15 12 7 7 -26 -9 -55 -6 -12 -9 -24 -6 -28 3 -3 6 0 6 6 0 7 5 12 11 12 5 0 8
-4 4 -9 -3 -5 -1 -12 4 -15 11 -7 9 13 -2 31 -5 7 1 16 13 23 12 6 20 7 20 1
0 -5 -6 -12 -12 -14 -10 -4 -10 -6 0 -6 7 -1 15 6 18 14 5 13 9 13 22 3 11 -9
13 -9 9 -1 -4 6 -3 14 3 18 6 4 8 10 5 15 -10 16 25 19 35 2 11 -16 11 -16 6
0 -6 20 10 34 18 16 3 -7 4 -4 3 7 -1 12 4 20 13 20 8 0 15 5 15 12 0 7 9 19
20 28 19 15 19 16 -5 4 -14 -7 -26 -12 -27 -11 -2 1 -2 1 -1 0 6 -8 -37 -46
-45 -41 -6 3 -7 1 -3 -5 4 -7 -2 -9 -18 -6 -21 3 -24 1 -21 -16 3 -13 0 -18
-7 -14 -7 5 -8 2 -3 -6 5 -9 4 -11 -4 -6 -8 6 -9 12 -2 20 7 8 7 16 0 23 -6 6
-5 10 3 11 7 1 24 3 38 4 30 4 42 18 29 34 -7 8 -6 15 2 20 8 4 9 3 5 -4 -4
-7 -3 -12 2 -12 17 0 22 13 9 28 -8 10 -8 13 -1 9 15 -9 26 17 13 30 -6 6 -5
14 4 21 11 9 13 6 13 -21 -1 -17 -5 -35 -11 -39 -6 -5 -3 -8 7 -8 9 0 20 5 23
10 3 6 1 10 -4 10 -13 0 -10 22 4 32 6 5 5 8 -3 8 -7 0 -11 4 -7 9 3 5 -4 16
-16 25 -12 8 -18 19 -14 25 3 6 -1 11 -9 11 -8 0 -18 9 -21 20 -4 11 -10 18
-15 15 -4 -2 -23 3 -41 12 -18 9 -47 18 -64 19 -16 1 -30 3 -30 4 0 3 -126 5
-129 3z m269 -233 c3 -5 1 -10 -4 -10 -6 0 -11 5 -11 10 0 6 2 10 4 10 3 0 8
-4 11 -10z m-69 -68 c0 -10 -6 -19 -13 -19 -15 0 -15 0 -7 21 8 22 20 20 20
-2z"/>
<path d="M2245 2790 c-3 -6 1 -7 9 -4 18 7 21 14 7 14 -6 0 -13 -4 -16 -10z"/>
<path d="M3766 2751 c-3 -4 0 -15 7 -24 11 -14 13 -14 27 1 13 14 12 15 -3 9
-9 -3 -19 -2 -22 3 -3 4 1 11 7 13 9 4 10 6 1 6 -6 1 -14 -3 -17 -8z"/>
<path d="M2013 2738 c1 -8 -7 -12 -23 -10 -19 2 -22 0 -10 -8 8 -5 12 -10 8
-11 -25 -5 -34 -4 -41 6 -5 5 -6 1 -2 -11 6 -24 -19 -53 -30 -34 -3 5 -1 10 4
10 6 0 11 5 11 11 0 8 -5 8 -15 -1 -8 -7 -13 -16 -10 -20 3 -5 1 -11 -5 -15
-5 -3 -15 -16 -21 -28 -9 -18 -6 -17 13 5 20 22 27 25 38 15 9 -9 11 -9 6 0
-3 6 -2 14 4 18 5 3 10 1 10 -4 0 -6 4 -11 9 -11 5 0 7 12 5 27 l-5 27 23 -19
c13 -11 18 -13 11 -6 -10 11 -9 17 5 27 21 17 40 18 24 2 -15 -15 -16 -28 -2
-28 6 0 9 6 8 13 -2 6 3 11 10 9 9 -1 8 5 -4 23 -18 27 -25 32 -21 13z"/>
<path d="M2321 2688 c-10 -16 -10 -23 0 -32 9 -8 10 -8 4 3 -5 9 -2 19 9 27 9
6 13 14 9 17 -5 3 -15 -4 -22 -15z"/>
<path d="M2272 2691 c-11 -6 -10 -10 4 -15 9 -3 19 -4 22 -1 3 3 0 5 -7 5 -7
0 -9 5 -6 10 7 12 4 12 -13 1z"/>
<path d="M1875 2670 c3 -5 8 -10 11 -10 2 0 4 5 4 10 0 6 -5 10 -11 10 -5 0
-7 -4 -4 -10z"/>
<path d="M2230 2673 c8 -3 24 -10 35 -15 20 -9 20 -9 1 6 -11 9 -27 16 -35 15
-14 0 -14 -1 -1 -6z"/>
<path d="M3790 2670 c-9 -6 -10 -10 -3 -10 6 0 15 5 18 10 8 12 4 12 -15 0z"/>
<path d="M2195 2660 c-4 -6 -11 -7 -17 -4 -7 4 -8 2 -4 -4 7 -12 36 -5 36 9 0
12 -7 11 -15 -1z"/>
<path d="M1855 2650 c3 -5 8 -10 11 -10 2 0 4 5 4 10 0 6 -5 10 -11 10 -5 0
-7 -4 -4 -10z"/>
<path d="M3805 2649 c-4 -6 -5 -12 -2 -15 2 -3 7 2 10 11 7 17 1 20 -8 4z"/>
<path d="M1840 2630 c0 -5 5 -10 11 -10 5 0 7 5 4 10 -3 6 -8 10 -11 10 -2 0
-4 -4 -4 -10z"/>
<path d="M2215 2630 c3 -5 8 -10 11 -10 2 0 4 5 4 10 0 6 -5 10 -11 10 -5 0
-7 -4 -4 -10z"/>
<path d="M1815 2610 c3 -5 14 -10 23 -10 15 0 15 2 2 10 -20 13 -33 13 -25 0z"/>
<path d="M2075 2611 c-3 -5 -2 -12 3 -15 5 -3 9 1 9 9 0 17 -3 19 -12 6z"/>
<path d="M2188 2613 c7 -3 16 -2 19 1 4 3 -2 6 -13 5 -11 0 -14 -3 -6 -6z"/>
<path d="M1778 2598 c5 -5 16 -8 23 -6 8 3 3 7 -10 11 -17 4 -21 3 -13 -5z"/>
<path d="M1750 2590 c0 -5 5 -10 11 -10 5 0 7 5 4 10 -3 6 -8 10 -11 10 -2 0
-4 -4 -4 -10z"/>
<path d="M1769 2555 c-10 -20 -10 -20 6 0 9 11 18 19 21 17 2 -2 10 -1 17 1 6
3 2 4 -11 4 -13 -1 -28 -11 -33 -22z"/>
<path d="M2006 2568 c3 -5 10 -6 15 -3 13 9 11 12 -6 12 -8 0 -12 -4 -9 -9z"/>
<path d="M1741 2554 c0 -11 3 -14 6 -6 3 7 2 16 -1 19 -3 4 -6 -2 -5 -13z"/>
<path d="M1688 2533 c-10 -2 -18 -9 -18 -14 0 -6 -5 -7 -12 -3 -7 4 -8 3 -4
-4 5 -9 14 -7 32 4 13 9 24 18 24 20 0 2 -1 3 -2 3 -2 -1 -11 -3 -20 -6z"/>
<path d="M2719 2498 c-6 -21 -4 -35 6 -44 9 -9 12 -5 12 17 0 16 -4 29 -9 29
-4 0 -8 -1 -9 -2z"/>
<path d="M1626 2468 c3 -5 10 -6 15 -3 13 9 11 12 -6 12 -8 0 -12 -4 -9 -9z"/>
<path d="M1553 2455 c0 -8 4 -12 9 -9 5 3 6 10 3 15 -9 13 -12 11 -12 -6z"/>
<path d="M1585 2450 c-3 -6 1 -7 9 -4 18 7 21 14 7 14 -6 0 -13 -4 -16 -10z"/>
<path d="M2546 2404 c-3 -8 -9 -13 -14 -11 -4 3 -16 -1 -27 -9 -10 -8 -14 -14
-8 -14 7 0 14 4 17 9 7 11 25 9 46 -4 13 -8 13 -7 1 8 -9 11 -10 17 -2 17 6 0
11 5 11 10 0 16 -17 12 -24 -6z"/>
<path d="M2473 2395 c0 -8 4 -12 9 -9 5 3 6 10 3 15 -9 13 -12 11 -12 -6z"/>
<path d="M2605 2390 c-3 -6 1 -7 9 -4 18 7 21 14 7 14 -6 0 -13 -4 -16 -10z"/>
<path d="M2375 2330 c-3 -5 -1 -10 4 -10 6 0 11 5 11 10 0 6 -2 10 -4 10 -3 0
-8 -4 -11 -10z"/>
<path d="M920 2246 c0 -5 -3 -7 -6 -3 -11 10 -88 -23 -117 -51 -55 -52 -99
-155 -90 -207 1 -11 5 -33 8 -50 3 -16 6 -36 7 -42 1 -7 5 -13 10 -13 4 0 8
-6 8 -14 0 -18 75 -97 84 -89 5 6 10 -10 8 -28 -1 -3 6 -6 13 -6 11 0 12 4 3
14 -8 11 -7 12 6 7 9 -3 16 -11 16 -16 0 -6 7 -8 15 -5 8 4 17 1 21 -5 5 -7 2
-8 -6 -3 -9 6 -11 4 -6 -4 6 -9 13 -8 29 6 19 16 20 16 8 1 -14 -19 -8 -23 29
-19 11 1 10 -3 -4 -14 -11 -8 -15 -15 -10 -15 6 0 16 6 23 13 11 10 13 9 8 -6
-4 -10 -3 -16 2 -13 5 3 11 14 13 24 4 15 0 18 -23 17 -15 -1 -26 2 -23 7 3 5
13 8 22 6 10 -1 22 1 29 5 8 5 11 1 8 -11 -4 -24 9 -45 29 -48 9 -1 14 2 10 7
-3 5 -9 7 -14 4 -4 -3 -11 2 -14 10 -4 11 0 15 12 13 9 -2 20 -7 24 -12 4 -6
12 -5 21 3 12 9 16 9 21 -1 3 -7 3 -3 1 9 -3 12 -1 24 5 28 15 9 12 22 -6 29
-14 5 -15 4 -5 -8 8 -10 9 -16 1 -21 -6 -4 -10 -3 -9 2 1 4 0 10 -1 13 -8 20
-5 48 4 43 6 -4 5 0 -1 9 -7 8 -10 18 -7 21 4 3 -24 5 -61 3 -78 -4 -129 9
-121 31 3 8 1 11 -5 8 -12 -8 -37 11 -50 39 -9 19 -9 20 4 3 14 -17 15 -17 21
0 4 10 4 14 0 11 -8 -8 -34 16 -34 31 0 6 5 11 11 11 5 0 7 -5 3 -12 -5 -7 -3
-8 5 -3 9 5 10 10 2 18 -13 13 -15 28 -3 25 6 -3 14 7 11 15 -7 22 -6 44 3 54
7 8 7 13 0 13 -5 0 -15 -7 -23 -16 -10 -13 -10 -17 2 -26 12 -8 12 -9 -1 -5
-8 2 -15 14 -15 28 0 20 6 24 33 25 18 1 35 -3 39 -9 3 -6 1 -7 -4 -4 -6 4
-16 0 -22 -7 -9 -11 -9 -14 1 -12 22 3 39 17 33 27 -4 5 1 12 9 15 20 8 21 21
1 21 -8 0 -11 -5 -8 -10 4 -6 1 -7 -7 -2 -9 5 -11 4 -6 -3 5 -9 0 -9 -17 -3
-14 6 -27 9 -29 8 -2 -1 2 3 9 9 7 6 9 15 5 19 -4 4 3 2 16 -4 20 -11 23 -10
20 5 -3 19 36 27 64 13 11 -6 18 -5 21 4 4 9 6 9 6 0 1 -7 10 -13 22 -13 11 0
17 4 14 10 -3 6 1 7 10 3 12 -4 13 -8 5 -13 -10 -6 -10 -12 0 -26 11 -18 11
-18 6 0 -5 14 -2 17 10 12 12 -4 15 -2 11 9 -4 8 -2 17 3 20 6 4 10 -1 10 -9
0 -8 3 -17 8 -19 4 -3 7 5 7 18 0 19 -4 22 -24 18 -22 -4 -23 -2 -10 13 9 11
9 15 2 10 -9 -5 -12 1 -9 23 3 25 -1 31 -23 36 -40 11 -111 11 -111 1z m-67
-233 c3 -5 -6 -9 -19 -9 -13 -1 -21 2 -18 7 6 11 31 12 37 2z m212 -262 c-3
-5 -1 -12 5 -16 6 -4 8 -11 4 -16 -4 -6 -10 -6 -18 0 -7 6 -15 8 -18 5 -3 -3
-9 0 -14 7 -4 7 -3 10 3 6 6 -4 16 0 23 8 14 17 25 20 15 6z"/>
<path d="M1655 2252 c-86 -16 -120 -35 -144 -81 -28 -52 -7 -132 43 -165 25
-16 38 -45 14 -30 -7 4 -8 3 -4 -5 6 -9 11 -9 22 0 11 9 16 6 23 -12 8 -19 10
-20 10 -6 1 17 2 17 17 3 8 -9 21 -13 27 -9 9 5 9 3 0 -8 -8 -10 -9 -19 -1
-29 8 -12 9 -12 4 3 -8 25 25 22 47 -4 19 -21 20 -64 2 -64 -5 0 -14 -3 -20
-6 -13 -8 -122 -4 -157 6 -30 8 -34 3 -41 -51 -5 -34 -1 -36 83 -51 14 -2 29
-8 34 -13 10 -10 -24 -6 -47 5 -6 4 -4 0 5 -8 10 -8 14 -18 10 -23 -4 -4 1 -2
11 5 15 12 17 11 17 -5 1 -15 3 -14 13 6 12 25 47 40 47 20 0 -6 -4 -9 -8 -6
-4 2 -14 0 -22 -6 -12 -8 -12 -9 2 -4 10 3 20 1 23 -4 8 -13 35 -13 35 0 0 5
-6 8 -12 6 -7 -1 -10 -1 -5 1 4 3 5 8 2 13 -3 4 1 10 9 13 8 3 13 -1 12 -8 0
-8 2 -13 5 -12 3 1 13 -4 22 -12 15 -12 21 -9 19 11 -1 3 6 9 14 12 11 4 15 2
11 -8 -4 -10 -1 -13 7 -10 20 8 7 47 -13 40 -12 -5 -11 -2 3 9 10 8 23 12 27
9 5 -3 9 0 9 7 0 9 3 9 14 -1 8 -6 13 -19 10 -28 -3 -9 1 -7 8 6 8 12 17 20
21 17 4 -3 5 -2 2 2 -3 3 1 13 8 21 10 13 9 14 -2 7 -11 -6 -13 -4 -8 8 3 9 2
19 -3 22 -6 4 -10 1 -10 -4 0 -6 -5 -11 -12 -11 -9 0 -9 3 0 12 15 15 16 31 0
22 -7 -4 -8 -3 -4 5 4 6 12 9 17 6 5 -4 9 1 9 10 0 9 5 13 10 10 8 -5 7 -12
-2 -22 -10 -12 -9 -17 3 -27 9 -6 16 -15 16 -19 1 -15 26 -68 30 -63 3 2 17 0
33 -4 20 -6 31 -4 34 3 3 7 3 2 0 -10 -4 -18 -2 -22 10 -17 9 3 13 11 9 17 -4
6 -1 7 7 2 10 -6 12 -4 6 11 -5 14 -4 16 4 8 9 -9 9 -17 1 -32 -15 -28 -14
-35 3 -20 8 7 14 15 14 18 -1 20 3 30 11 25 5 -3 13 0 17 6 4 7 3 9 -3 6 -14
-9 -24 18 -12 30 6 6 4 10 -5 10 -8 0 -13 -8 -11 -18 3 -13 -1 -16 -12 -12 -8
3 -10 9 -5 12 5 3 8 14 6 24 -2 14 2 17 14 13 9 -3 5 3 -11 15 -15 11 -25 25
-21 30 5 8 -22 13 -56 10 -25 -3 -60 -23 -54 -33 3 -4 -2 -8 -10 -8 -18 0 -21
16 -5 25 7 5 4 14 -8 28 -17 20 -17 20 2 13 15 -5 17 -4 8 5 -12 12 -37 3 -28
-11 3 -5 1 -11 -4 -15 -6 -3 -8 3 -6 15 2 11 -2 20 -8 20 -7 0 -6 4 3 10 10 6
11 10 3 10 -7 0 -13 6 -13 14 0 7 -14 24 -32 37 -17 13 -37 30 -44 37 -7 7
-17 13 -21 12 -18 0 -43 12 -43 21 0 6 -4 7 -10 4 -5 -3 -10 -1 -10 5 0 6 -4
8 -10 5 -5 -3 -10 -1 -10 5 0 6 -4 8 -10 5 -6 -3 -7 1 -4 10 5 11 2 14 -12 9
-14 -4 -15 -3 -6 4 11 7 10 10 -3 16 -14 5 -15 9 -5 21 7 8 16 13 20 10 5 -3
11 -1 15 5 10 16 22 12 28 -11 3 -12 10 -18 17 -14 6 4 18 1 27 -7 14 -11 16
-11 8 2 -14 23 -14 37 1 37 10 0 11 -4 4 -12 -8 -9 -6 -14 5 -19 10 -4 15 1
16 17 1 17 2 18 6 5 2 -10 9 -18 14 -18 6 0 7 5 4 11 -4 6 -1 10 6 8 30 -4 34
2 31 41 -3 31 -9 41 -26 45 -34 7 -109 11 -131 7z m40 -91 c3 -5 2 -12 -3 -15
-5 -3 -9 1 -9 9 0 17 3 19 12 6z m158 -364 c-5 -11 -7 -11 -28 1 -19 11 -18
12 5 8 14 -1 24 -6 23 -9z m-111 -54 c-10 -4 -10 -8 0 -21 11 -15 11 -15 -3
-5 -9 7 -20 9 -25 5 -5 -4 0 3 10 16 11 12 22 19 25 16 3 -4 0 -9 -7 -11z"/>
<path d="M1822 2185 c1 -37 -2 -45 -13 -42 -6 1 -14 -4 -16 -11 -6 -16 33 -10
50 8 9 10 9 11 0 6 -7 -4 -13 -2 -13 3 0 6 5 11 10 11 6 0 10 5 10 11 0 5 -4
8 -9 4 -5 -3 -12 3 -15 12 -4 15 -5 15 -4 -2z"/>
<path d="M3435 2161 c-3 -5 -1 -12 5 -16 5 -3 10 1 10 9 0 18 -6 21 -15 7z"/>
<path d="M1647 2153 c-4 -3 -1 -13 5 -22 9 -11 6 -10 -9 2 -12 11 -23 14 -27
8 -4 -5 4 -13 16 -17 44 -15 49 -14 37 9 -15 29 -15 28 -22 20z"/>
<path d="M907 2133 c3 -8 8 -12 11 -9 2 3 19 -2 36 -10 l31 -15 -25 21 c-20
17 -21 19 -5 14 11 -4 17 -3 13 1 -5 5 -21 9 -37 10 -21 1 -28 -2 -24 -12z"/>
<path d="M980 2132 c0 -5 11 -14 25 -20 14 -6 25 -10 25 -8 0 2 -11 11 -25 20
-14 9 -25 13 -25 8z"/>
<path d="M1771 2114 c0 -11 3 -14 6 -6 3 7 2 16 -1 19 -3 4 -6 -2 -5 -13z"/>
<path d="M1690 2109 c0 -5 5 -7 10 -4 6 3 10 8 10 11 0 2 -4 4 -10 4 -5 0 -10
-5 -10 -11z"/>
<path d="M936 2092 c-3 -5 1 -9 9 -9 8 0 12 4 9 9 -3 4 -7 8 -9 8 -2 0 -6 -4
-9 -8z"/>
<path d="M870 2030 c0 -5 5 -10 10 -10 6 0 10 5 10 10 0 6 -4 10 -10 10 -5 0
-10 -4 -10 -10z"/>
<path d="M3253 2008 c-13 -6 -23 -16 -23 -21 0 -6 3 -7 7 -4 3 4 13 1 22 -6
14 -11 15 -10 1 7 -13 18 -13 19 1 14 10 -4 16 -1 16 8 0 8 -1 14 -1 13 -1 0
-11 -5 -23 -11z"/>
<path d="M1175 1878 c-51 -27 -59 -76 -20 -113 14 -12 34 -22 43 -20 9 2 17 4
17 5 0 9 35 5 38 -5 4 -8 -3 -11 -19 -9 -27 3 -33 -11 -8 -20 8 -3 12 -2 9 4
-3 6 -2 10 4 10 5 0 14 -6 18 -14 7 -12 10 -12 21 0 10 10 10 14 1 14 -7 0 -9
3 -6 7 4 3 0 15 -10 25 -9 10 -11 18 -5 18 6 0 9 9 7 21 -3 16 0 19 13 14 15
-6 15 -4 -1 12 -10 10 -23 26 -30 36 -15 22 -47 28 -72 15z"/>
<path d="M1273 1781 c0 -9 7 -22 14 -29 12 -12 13 -10 9 11 -2 15 1 28 7 30 7
3 3 5 -9 4 -11 -1 -21 -8 -21 -16z"/>
<path d="M2733 1780 c-1 -11 2 -18 8 -15 11 7 12 35 1 35 -4 0 -8 -9 -9 -20z"/>
<path d="M2693 1761 c-9 -14 -8 -18 3 -18 7 0 11 4 8 8 -2 4 1 9 8 11 7 3 8 7
2 11 -5 3 -15 -2 -21 -12z"/>
<path d="M1797 1753 c7 -17 20 -17 26 1 4 10 0 14 -12 13 -11 -1 -17 -7 -14
-14z"/>
<path d="M2750 1756 c0 -2 7 -7 16 -10 8 -3 12 -2 9 4 -6 10 -25 14 -25 6z"/>
<path d="M1953 1733 c4 -3 1 -13 -6 -22 -11 -14 -10 -14 5 -2 16 12 16 31 1
31 -4 0 -3 -3 0 -7z"/>
<path d="M2050 1729 c0 -5 5 -7 10 -4 6 3 10 8 10 11 0 2 -4 4 -10 4 -5 0 -10
-5 -10 -11z"/>
<path d="M2540 1736 c0 -2 8 -10 18 -17 15 -13 16 -12 3 4 -13 16 -21 21 -21
13z"/>
<path d="M876 1717 c3 -10 9 -15 12 -12 3 3 0 11 -7 18 -10 9 -11 8 -5 -6z"/>
<path d="M2431 1716 c-9 -11 -9 -16 1 -22 7 -4 10 -4 6 1 -4 4 -3 14 3 22 6 7
9 13 6 13 -2 0 -10 -6 -16 -14z"/>
<path d="M1550 1710 c0 -5 5 -10 11 -10 5 0 7 5 4 10 -3 6 -8 10 -11 10 -2 0
-4 -4 -4 -10z"/>
<path d="M2152 1715 c3 -3 16 -8 28 -10 12 -2 20 -1 16 2 -4 4 -16 8 -28 10
-12 2 -19 1 -16 -2z"/>
<path d="M2203 1695 c-10 -11 -9 -13 7 -12 20 1 26 12 13 20 -5 3 -14 -1 -20
-8z"/>
<path d="M2355 1699 c-4 -5 -4 -13 -1 -16 3 -4 6 0 6 8 0 11 2 11 10 -1 6 -9
10 -10 10 -3 0 17 -17 25 -25 12z"/>
<path d="M1630 1692 c0 -4 9 -8 19 -8 11 0 17 4 15 8 -3 4 -12 8 -20 8 -8 0
-14 -4 -14 -8z"/>
<path d="M1715 1690 c3 -5 8 -10 11 -10 2 0 4 5 4 10 0 6 -5 10 -11 10 -5 0
-7 -4 -4 -10z"/>
<path d="M1593 1623 c-7 -3 -10 -22 -7 -53 4 -48 4 -48 -20 -37 -13 7 -22 15
-20 18 6 10 -23 5 -33 -5 -4 -4 -9 -24 -10 -44 -4 -70 -5 -73 -27 -66 -29 9
-28 7 -29 63 0 54 -12 67 -42 45 -10 -8 -14 -14 -9 -14 6 0 11 -7 11 -15 0 -8
-5 -15 -11 -15 -6 0 -4 -5 4 -10 11 -7 11 -10 2 -10 -8 0 -10 -5 -5 -12 8 -13
13 -33 15 -55 1 -7 6 -14 12 -15 31 -4 43 -3 68 3 17 5 30 3 34 -3 4 -6 3 -8
-3 -5 -5 3 -10 0 -10 -8 0 -13 3 -13 17 0 13 12 19 12 30 2 12 -10 12 -9 3 3
-6 8 -13 34 -15 58 -3 32 0 42 11 42 11 0 10 3 -4 13 -13 11 -15 16 -6 22 7 4
18 2 24 -4 12 -12 18 -103 6 -96 -4 3 -6 -2 -5 -12 3 -20 46 -26 53 -7 9 25 8
154 -2 158 -6 3 -5 5 1 5 14 1 6 48 -10 54 -6 2 -16 2 -23 0z"/>
<path d="M2104 1616 c-6 -7 -10 -23 -9 -36 1 -14 -2 -31 -8 -37 -6 -9 -6 -13
3 -13 10 0 10 -3 1 -14 -7 -8 -8 -17 -4 -19 5 -3 8 -25 7 -49 -1 -52 10 -62
49 -41 22 11 32 12 37 3 4 -6 13 -12 21 -13 8 -2 20 -6 28 -11 8 -5 16 -4 21
3 4 7 11 11 16 10 26 -5 36 2 31 21 -3 11 -2 20 2 20 4 0 7 9 8 20 1 11 -4 20
-10 20 -8 0 -8 3 -2 8 14 10 17 32 4 32 -5 0 -8 4 -4 9 9 16 -17 25 -70 27
-43 1 -51 -2 -51 -17 0 -15 8 -19 38 -19 20 0 40 -5 44 -12 5 -8 0 -9 -14 -6
-12 4 -20 2 -17 -3 3 -4 -5 -11 -19 -15 -13 -3 -27 -12 -30 -21 -4 -8 -11 -11
-18 -7 -10 6 -11 5 -1 -8 14 -17 8 -28 -16 -28 -14 0 -14 2 -1 10 8 5 10 10 4
10 -7 0 -10 22 -8 61 2 49 0 60 -11 55 -8 -3 -17 -1 -20 4 -6 9 11 14 45 11
10 0 11 1 3 5 -18 8 -16 27 2 20 25 -9 17 3 -12 18 -22 11 -31 11 -39 2z m148
-168 c-5 -19 -22 -25 -22 -7 0 5 -4 7 -10 4 -5 -3 -7 0 -5 7 8 21 43 17 37 -4z"/>
<path d="M3283 1619 c-26 -10 -30 -37 -7 -46 20 -8 44 17 35 38 -4 12 -12 14
-28 8z"/>
<path d="M820 1609 c0 -5 -7 -6 -15 -3 -8 4 -15 1 -15 -5 0 -6 -6 -11 -13 -11
-7 0 -19 -10 -26 -22 -17 -26 -32 -110 -19 -102 4 3 8 -1 8 -9 0 -19 34 -57
52 -57 8 0 20 -6 27 -12 8 -7 11 -8 8 -3 -3 6 8 10 25 10 25 0 32 5 35 23 3
21 0 23 -28 18 -20 -3 -32 0 -36 10 -3 8 -9 14 -15 14 -18 0 -36 26 -28 41 6
8 4 16 -3 21 -9 6 -9 8 1 8 6 0 12 6 12 14 0 14 43 31 72 27 16 -2 19 21 5 36
-10 10 -47 11 -47 2z"/>
<path d="M2689 1607 c-41 -10 -47 -16 -52 -46 -5 -29 24 -65 65 -82 45 -18 33
-44 -21 -44 -34 0 -45 -4 -47 -17 -1 -12 4 -18 16 -18 10 0 20 -6 23 -12 3
-10 7 -10 20 1 10 7 17 9 17 4 0 -5 7 -10 15 -10 8 0 12 4 10 8 -3 3 9 12 26
19 18 8 28 18 25 26 -3 8 -2 14 2 14 12 0 41 -38 35 -44 -4 -3 7 -7 23 -8 16
-1 38 -2 49 -3 31 -2 44 5 42 25 -1 12 -8 17 -23 15 -21 -2 -79 23 -59 26 30
4 42 4 65 -4 13 -4 21 -5 17 -1 -8 8 11 34 24 34 5 0 9 -20 9 -45 0 -25 5 -45
11 -45 5 0 7 -6 3 -12 -4 -7 3 -4 15 7 16 13 20 26 16 42 -3 13 -2 23 3 23 13
0 11 30 -2 31 -11 0 32 22 48 23 5 1 13 11 17 24 7 17 6 22 -4 19 -6 -2 -20 0
-30 5 -9 5 -17 5 -16 1 3 -21 -2 -24 -18 -12 -15 12 -16 12 -8 -1 6 -12 5 -12
-5 -3 -19 18 -38 5 -32 -23 3 -18 0 -24 -12 -24 -10 0 -14 5 -11 10 3 6 1 10
-4 10 -6 0 -11 7 -11 15 0 14 -18 20 -49 16 -7 -2 -10 2 -6 8 3 6 -10 1 -30
-10 -24 -14 -38 -31 -42 -50 -3 -16 -10 -32 -15 -35 -6 -4 -7 2 -3 15 4 15 3
21 -7 19 -7 -2 -12 3 -10 11 2 9 -3 11 -14 7 -11 -4 -15 -2 -11 7 3 8 -1 14
-9 14 -7 0 -10 -5 -7 -11 3 -6 -5 -1 -18 11 -27 26 -23 34 23 37 47 4 46 4 44
23 -3 19 -37 23 -87 10z m206 -101 c12 -12 10 -13 -14 -12 -19 0 -27 5 -24 13
7 17 21 16 38 -1z"/>
<path d="M1681 1581 c-6 -10 -7 -21 -4 -25 3 -3 -1 -6 -9 -6 -9 0 -19 -7 -22
-16 -3 -8 -2 -12 4 -9 14 8 30 -29 20 -45 -5 -9 -5 -19 2 -27 5 -7 8 -20 4
-28 -3 -9 -2 -13 4 -10 6 3 10 1 10 -4 0 -6 9 -11 21 -11 13 0 18 -4 13 -12
-5 -9 -2 -9 9 1 9 7 17 10 17 5 0 -4 5 -3 11 3 9 9 8 16 -5 28 -9 9 -13 21
-10 27 4 7 2 8 -5 4 -6 -4 -9 -13 -5 -19 3 -7 -1 -4 -10 6 -15 19 -11 51 5 41
5 -3 6 2 3 10 -3 9 -11 13 -17 9 -6 -3 -7 -1 -3 5 10 16 12 15 37 -10 21 -23
21 -23 10 -1 -14 27 -14 36 0 28 6 -4 5 2 -2 13 -7 12 -17 18 -21 16 -4 -3 -8
0 -8 6 0 6 -4 9 -9 6 -5 -4 -7 3 -4 14 7 26 -22 27 -36 1z"/>
<path d="M3305 1569 c-3 -4 2 -6 10 -5 21 3 28 13 10 13 -9 0 -18 -4 -20 -8z"/>
<path d="M1169 1561 c-3 -9 -18 -14 -42 -13 l-37 1 0 -74 c0 -61 3 -75 16 -75
9 0 13 -5 9 -12 -4 -7 1 -4 9 6 9 11 16 24 16 29 0 4 6 5 13 2 6 -4 3 0 -7 9
-16 13 -17 18 -6 31 10 12 10 15 -1 15 -12 0 -12 2 -1 9 8 4 13 11 13 15 -3
19 1 19 16 1 13 -16 15 -17 10 -2 -4 9 -3 17 2 17 12 0 18 -28 15 -77 -1 -36
1 -42 23 -46 13 -2 22 -2 19 0 -3 3 -1 16 4 29 5 13 5 26 1 29 -5 2 -7 20 -4
39 5 36 -19 71 -43 62 -7 -3 -14 0 -17 7 -2 8 -5 8 -8 -2z"/>
<path d="M1880 1561 c0 -4 -11 -7 -25 -6 -14 2 -25 -1 -25 -6 0 -5 -7 -9 -16
-9 -8 0 -22 -16 -30 -35 -13 -31 -12 -39 1 -72 8 -20 18 -33 22 -30 3 4 12 2
20 -5 7 -6 16 -8 20 -5 3 4 13 1 21 -6 13 -10 14 -9 8 2 -6 9 -5 12 4 9 7 -2
23 6 35 18 23 23 41 84 25 84 -12 0 -13 26 -2 33 4 2 1 2 -6 1 -7 -2 -21 5
-32 16 -11 11 -20 16 -20 11z m8 -80 c4 -41 -8 -55 -38 -46 -18 6 -20 9 -9 16
11 7 11 9 -3 9 -11 0 -16 6 -13 15 3 8 7 21 9 29 2 7 15 13 28 12 19 -1 24 -7
26 -35z"/>
<path d="M1855 1500 c-3 -6 1 -7 9 -4 18 7 21 14 7 14 -6 0 -13 -4 -16 -10z"/>
<path d="M2026 1559 c4 -7 -3 -10 -17 -9 -42 4 -50 0 -47 -17 2 -12 -2 -17
-12 -15 -12 3 -11 0 2 -15 12 -13 14 -23 8 -33 -14 -21 -12 -32 3 -24 8 5 8 2
-2 -9 -9 -11 -10 -17 -2 -17 6 0 11 -5 11 -11 0 -5 -4 -8 -8 -5 -5 3 -9 -1 -9
-9 0 -8 5 -11 11 -7 11 7 17 8 37 11 7 1 10 15 7 37 -4 30 -2 35 14 31 10 -3
16 -1 12 4 -3 5 -12 9 -21 9 -14 0 -14 2 1 19 11 12 25 17 39 13 12 -3 19 -1
15 3 -4 4 -2 17 4 29 6 11 7 18 3 14 -4 -4 -18 -3 -32 3 -17 6 -22 6 -17 -2z"/>
<path d="M3720 1561 c-8 -6 -17 -8 -21 -6 -3 3 -14 -4 -24 -15 -26 -29 -13
-65 32 -83 21 -9 30 -16 21 -16 -10 -1 -18 -7 -18 -13 0 -8 -3 -9 -8 -3 -13
18 -48 13 -49 -7 -1 -10 5 -18 13 -18 9 0 12 -5 8 -12 -5 -7 -3 -8 7 -2 25 15
41 14 35 -4 -5 -14 -3 -14 8 2 8 10 19 15 25 11 6 -3 11 -1 11 5 0 6 4 8 10 5
6 -4 7 1 3 11 -4 11 -3 15 4 11 13 -8 12 11 -2 33 -5 8 -10 18 -10 22 0 3 -4
10 -9 15 -5 5 -6 3 -2 -5 6 -10 2 -10 -18 0 -14 6 -26 16 -26 21 0 5 7 4 15
-3 13 -11 14 -10 9 5 -6 15 -4 16 13 7 17 -9 19 -8 18 11 -1 15 -8 21 -20 19
-10 -2 -14 1 -10 7 8 13 5 14 -15 2z"/>
<path d="M820 1555 c0 -7 30 -13 34 -7 3 4 -4 9 -15 9 -10 1 -19 0 -19 -2z"/>
<path d="M965 1550 c-11 -4 -24 -5 -30 -2 -5 3 -7 2 -3 -3 4 -4 1 -13 -8 -19
-8 -6 -16 -18 -17 -26 -2 -8 -6 -21 -10 -27 -5 -8 -3 -13 4 -13 6 0 9 -8 6
-20 -3 -11 -1 -18 4 -14 5 3 9 0 9 -5 0 -6 7 -11 15 -11 8 0 15 -4 15 -9 0 -7
55 -8 70 -1 3 1 8 2 13 1 4 0 7 4 7 10 0 5 5 7 10 4 6 -3 10 -1 10 5 0 6 5 8
13 4 8 -5 8 -2 -2 9 -8 10 -9 17 -3 17 12 0 8 31 -9 72 -6 15 -15 25 -20 22
-5 -3 -9 -1 -9 3 0 11 -40 13 -65 3z m52 -49 c7 -10 9 -22 5 -26 -4 -4 -8 -11
-8 -16 -1 -5 -2 -13 -3 -18 -1 -10 -33 -7 -52 5 -8 4 -7 9 2 15 11 7 11 9 -1
9 -13 0 -13 1 0 10 11 7 11 10 2 10 -10 0 -10 3 0 15 18 20 41 18 55 -4z"/>
<path d="M1295 1548 c-11 -5 -28 -23 -38 -41 -10 -18 -13 -27 -6 -20 13 13 39
-5 39 -29 0 -9 3 -9 8 -2 5 8 13 5 27 -9 20 -19 20 -19 -4 -12 -16 5 -21 4
-17 -4 9 -14 -26 -2 -37 13 -6 7 -7 4 -3 -6 3 -10 1 -18 -4 -18 -15 0 -12 -17
3 -17 24 -1 42 -8 54 -23 11 -13 12 -12 6 5 -6 18 -5 19 12 5 10 -8 16 -10 12
-4 -4 7 0 15 9 18 22 9 26 8 18 -6 -5 -7 -3 -8 5 -4 7 5 10 11 7 14 -3 3 0 12
7 21 11 14 10 15 -7 1 -18 -14 -19 -14 -7 8 7 14 8 22 1 22 -5 0 -10 7 -10 16
0 8 -4 12 -10 9 -5 -3 -10 -1 -10 4 0 6 -7 11 -15 11 -8 0 -15 5 -15 10 0 6
12 10 26 10 16 0 23 -4 18 -12 -4 -6 -3 -8 3 -5 6 4 8 18 6 31 -4 19 -11 24
-32 24 -14 -1 -35 -5 -46 -10z"/>
<path d="M2435 1545 c-16 -7 -26 -14 -22 -14 5 -1 2 -7 -6 -15 -31 -32 -2
-115 42 -119 11 -1 21 -5 21 -9 0 -5 8 -4 18 1 17 9 24 11 41 11 5 0 7 9 4 20
-4 15 -12 19 -34 16 -16 -2 -37 3 -46 10 -17 13 -17 14 1 7 11 -3 17 -2 14 3
-4 5 9 9 28 10 21 0 31 -3 27 -10 -3 -6 0 -6 7 1 16 15 23 66 8 57 -6 -4 -9
-1 -6 7 4 13 -33 39 -56 39 -6 -1 -24 -7 -41 -15z m58 -39 c4 -9 -2 -13 -16
-12 -11 1 -22 7 -25 14 -5 17 34 16 41 -2z"/>
<path d="M3092 1540 c-3 -8 -7 -19 -10 -24 -3 -5 0 -6 6 -2 8 5 14 -7 18 -34
4 -22 10 -40 15 -40 5 0 9 -9 9 -20 0 -11 5 -20 11 -20 5 0 7 -6 3 -12 -6 -10
-4 -10 8 0 13 10 17 10 21 0 3 -8 6 -6 6 5 1 10 5 15 11 12 6 -4 7 1 3 11 -5
13 -3 15 8 9 8 -4 11 -5 7 0 -4 4 -2 15 5 23 10 13 9 14 -1 8 -9 -6 -8 3 4 25
23 43 23 71 2 75 -15 2 -26 -12 -34 -41 -1 -5 -6 -21 -11 -34 -8 -20 -11 -21
-16 -8 -4 10 -1 17 6 17 7 0 4 5 -5 11 -10 5 -18 20 -18 32 0 27 -39 32 -48 7z"/>
<path d="M3256 1484 c3 -81 5 -87 32 -89 15 -1 17 9 18 77 0 43 -2 78 -5 79
-3 0 -15 2 -27 4 -19 4 -20 0 -18 -71z"/>
<path d="M3380 1548 c0 -4 -6 -8 -12 -8 -7 -1 -23 -16 -35 -35 -12 -19 -19
-34 -15 -34 19 3 26 -2 14 -10 -10 -6 -5 -16 20 -41 18 -19 32 -40 30 -48 -2
-8 1 -11 7 -8 15 10 24 -13 11 -29 -20 -25 24 -19 46 6 10 11 14 19 9 17 -6
-2 -12 2 -14 7 -2 6 -11 15 -19 21 -12 9 -11 10 9 9 13 -1 23 -8 21 -14 -1 -7
1 -10 6 -7 7 4 8 19 3 57 -1 3 -12 5 -26 4 -14 -2 -25 1 -25 7 0 6 -6 8 -13 5
-10 -4 -14 5 -14 29 0 19 3 32 5 29 3 -3 12 1 20 8 11 8 13 8 9 0 -5 -8 -1 -8
17 0 38 18 29 43 -16 43 -21 0 -38 -3 -38 -8z"/>
<path d="M3515 1549 c-11 -4 -16 -8 -11 -8 5 -1 0 -9 -10 -18 -11 -10 -19 -25
-19 -33 1 -8 -3 -21 -8 -27 -6 -9 -4 -15 7 -19 9 -3 13 -10 10 -15 -3 -5 0 -9
6 -9 6 0 8 -5 4 -12 -4 -6 -3 -8 4 -4 6 3 18 -1 26 -10 9 -8 16 -11 16 -6 0 5
8 9 18 9 42 0 52 5 68 32 10 17 21 28 24 26 4 -3 5 7 2 20 -2 14 -8 25 -13 25
-5 0 -9 9 -9 19 0 30 -70 48 -115 30z m65 -39 c8 -5 11 -10 6 -10 -5 0 -3 -7
4 -15 8 -10 9 -15 2 -15 -6 0 -9 -6 -6 -13 7 -19 -22 -42 -32 -26 -5 8 -3 9 6
4 8 -5 11 -4 6 3 -4 6 -13 9 -21 5 -8 -3 -15 -1 -16 3 0 5 -2 17 -4 27 -3 18
-3 18 17 0 21 -18 21 -18 5 8 -23 35 -3 52 33 29z"/>
<path d="M2020 1496 c0 -2 11 -6 25 -8 13 -3 22 -1 19 3 -5 9 -44 13 -44 5z"/>
<path d="M2696 1448 c3 -5 10 -6 15 -3 13 9 11 12 -6 12 -8 0 -12 -4 -9 -9z"/>
<path d="M2310 1420 c0 -5 5 -10 11 -10 5 0 7 5 4 10 -3 6 -8 10 -11 10 -2 0
-4 -4 -4 -10z"/>
</g>
</svg>
