<?xml version="1.0" standalone="no"?>
<!DOCTYPE svg PUBLIC "-//W3C//DTD SVG 20010904//EN"
 "http://www.w3.org/TR/2001/REC-SVG-20010904/DTD/svg10.dtd">
<svg version="1.0" xmlns="http://www.w3.org/2000/svg"
 width="151.000000pt" height="151.000000pt" viewBox="0 0 151.000000 151.000000"
 preserveAspectRatio="xMidYMid meet">
<metadata>
Created by potrace 1.14, written by Peter Selinger 2001-2017
</metadata>
<g transform="translate(0.000000,151.000000) scale(0.100000,-0.100000)"
fill="#000000" stroke="none">
<path d="M410 1423 c-87 -31 -169 -102 -209 -181 -17 -33 -32 -93 -45 -177 -3
-16 -14 -86 -25 -155 -11 -69 -32 -201 -46 -295 -15 -93 -28 -181 -31 -195 -2
-14 -13 -83 -24 -155 -12 -72 -23 -143 -26 -158 l-6 -28 564 3 563 3 56 29
c93 48 155 114 184 197 9 24 27 116 41 204 31 199 30 191 48 300 8 50 18 110
21 135 3 25 8 52 10 60 25 97 25 243 1 290 -25 49 -64 88 -111 113 -39 22 -50
22 -480 24 -380 2 -446 0 -485 -14z"/>
</g>
</svg>
